<?xml version="1.0" encoding="utf-8"?>
<!-- Generator: Adobe Illustrator 22.0.0, SVG Export Plug-In . SVG Version: 6.00 Build 0)  -->
<svg version="1.1" id="Warstwa_1" xmlns="http://www.w3.org/2000/svg" xmlns:xlink="http://www.w3.org/1999/xlink" x="0px" y="0px"
	 viewBox="0 0 707.1 200" style="enable-background:new 0 0 707.1 200;" xml:space="preserve">
<style type="text/css">
	.st0{fill:#1985AC;}
	.st1{fill:#FFFFFF;}
</style>
<rect y="-7.3" class="st0" width="214" height="214"/>
<g>
	<path class="st1" d="M67.8,32h19v135.3h-19V32z M77,32h77.7v18.1H77V32z M77,91.1h67.5v18.1H77V91.1z M77,149.3h77.7v18.1H77V149.3
		z"/>
	<path d="M256.9,32h19v135.4h-19V32z M265.2,92.1h46.2c3.6,0,6.8-0.9,9.6-2.6c2.8-1.7,4.9-4.2,6.5-7.4c1.5-3.2,2.3-6.9,2.3-11
		c0-4.2-0.8-7.8-2.3-11c-1.5-3.2-3.7-5.7-6.4-7.4c-2.8-1.7-6-2.6-9.6-2.6h-46.2V32h45.4c7.8,0,14.7,1.6,20.6,4.8
		c5.9,3.2,10.5,7.8,13.8,13.7c3.3,5.9,4.9,12.8,4.9,20.5c0,7.8-1.6,14.6-4.9,20.5c-3.3,5.9-7.9,10.5-13.8,13.7
		c-5.9,3.2-12.8,4.8-20.5,4.8h-45.4V92.1z M302.1,105.9l18.9-4.3l34.6,65.7h-22.5L302.1,105.9z"/>
	<path d="M456.5,32h19v135.3h-19V32z M466.2,96.8h43.3c4.1,0,7.7-1,10.8-2.9c3.1-1.9,5.5-4.7,7.2-8.2c1.7-3.5,2.6-7.6,2.6-12.2
		c0-4.7-0.9-8.7-2.6-12.3c-1.7-3.5-4.1-6.3-7.2-8.2c-3.1-2-6.7-2.9-10.8-2.9h-43.3V32h42.6c8.1,0,15.2,1.7,21.3,5.2
		c6.1,3.4,10.9,8.3,14.3,14.6c3.4,6.3,5.1,13.5,5.1,21.8c0,8.3-1.7,15.5-5.1,21.7c-3.4,6.2-8.1,11.1-14.3,14.5
		c-6.1,3.4-13.2,5.1-21.3,5.1h-42.6V96.8z"/>
</g>
</svg>
